<?xml version="1.0" encoding="UTF-8"?>
<svg
  version="1.1"
  xmlns="http://www.w3.org/2000/svg"
  viewBox="105.894 90.453 288.05 288.05"
  width="512"
  height="512"
>
<path d="M0 0 C0.67671753 -0.00287018 1.35343506 -0.00574036 2.05065918 -0.00869751 C3.47958209 -0.01073647 4.90853302 -0.00521819 6.33740234 0.00732422 C8.52374725 0.02338239 10.70824379 0.00747216 12.89453125 -0.01171875 C14.28385824 -0.00973629 15.67318409 -0.00589254 17.0625 0 C18.32642578 0.00338379 19.59035156 0.00676758 20.89257812 0.01025391 C24.03125 0.3984375 24.03125 0.3984375 25.94848633 1.50854492 C27.58552009 4.36587938 27.36707513 6.76378607 27.32421875 10.03515625 C27.31455078 11.33388672 27.30488281 12.63261719 27.29492188 13.97070312 C27.26985585 15.34245389 27.24446101 16.71419868 27.21875 18.0859375 C27.2037002 19.46938674 27.1900123 20.85285151 27.17773438 22.23632812 C27.14232458 25.62386476 27.08851701 29.01119987 27.03125 32.3984375 C35.94125 32.3984375 44.85125 32.3984375 54.03125 32.3984375 C53.97904297 29.43617187 53.97904297 29.43617187 53.92578125 26.4140625 C53.89764502 23.82552933 53.87034469 21.23698697 53.84375 18.6484375 C53.81861328 17.34648438 53.79347656 16.04453125 53.76757812 14.703125 C53.75791016 13.45273438 53.74824219 12.20234375 53.73828125 10.9140625 C53.7225708 9.76196289 53.70686035 8.60986328 53.69067383 7.42285156 C54.07704417 3.99177217 54.38439817 2.6272949 57.03125 0.3984375 C60.26171875 -0.11914062 60.26171875 -0.11914062 64.21875 -0.1328125 C64.91766357 -0.1366394 65.61657715 -0.14046631 66.33666992 -0.14440918 C67.81267743 -0.14712818 69.28873313 -0.13976748 70.76464844 -0.12304688 C73.02387921 -0.10163237 75.27993061 -0.12284385 77.5390625 -0.1484375 C78.97396535 -0.14579422 80.40886622 -0.14066921 81.84375 -0.1328125 C83.80248047 -0.12604492 83.80248047 -0.12604492 85.80078125 -0.11914062 C89.03125 0.3984375 89.03125 0.3984375 90.9621582 2.02441406 C92.36116893 5.13105491 92.37065051 7.50906711 92.32421875 10.9140625 C92.31455078 12.16445312 92.30488281 13.41484375 92.29492188 14.703125 C92.26978516 16.00507812 92.24464844 17.30703125 92.21875 18.6484375 C92.20521484 19.96585938 92.19167969 21.28328125 92.17773438 22.640625 C92.14237809 25.8934035 92.08857152 29.14597193 92.03125 32.3984375 C100.94125 32.3984375 109.85125 32.3984375 119.03125 32.3984375 C118.99644531 30.33980469 118.96164062 28.28117187 118.92578125 26.16015625 C118.90492053 24.16448045 118.88416635 22.16880194 118.86645508 20.1730957 C118.85137603 18.78695831 118.8309095 17.40086856 118.80493164 16.01489258 C118.76851284 14.02185604 118.75311982 12.02847027 118.73828125 10.03515625 C118.71471558 8.23630981 118.71471558 8.23630981 118.69067383 6.40112305 C119.03125 3.3984375 119.03125 3.3984375 120.09375 1.50195312 C123.06166612 -0.18844265 126.0059691 0.03040517 129.32421875 0.10546875 C130.38326164 0.11183601 130.38326164 0.11183601 131.46369934 0.11833191 C133.71577303 0.13510716 135.96694742 0.17275507 138.21875 0.2109375 C139.74673185 0.22598593 141.27472776 0.23967406 142.80273438 0.25195312 C146.54591872 0.28500661 150.28843196 0.33677918 154.03125 0.3984375 C154.03125 1.0584375 154.03125 1.7184375 154.03125 2.3984375 C154.69125 2.3984375 155.35125 2.3984375 156.03125 2.3984375 C156.03125 20.5484375 156.03125 38.6984375 156.03125 57.3984375 C173.38356041 57.35884425 173.38356041 57.35884425 190.73583984 57.30834961 C192.9046219 57.30543013 195.0734045 57.30288164 197.2421875 57.30078125 C198.3763208 57.29566528 199.5104541 57.29054932 200.67895508 57.28527832 C201.7547583 57.28515747 202.83056152 57.28503662 203.93896484 57.28491211 C204.87606293 57.2826915 205.81316101 57.28047089 206.77865601 57.27818298 C209.03125 57.3984375 209.03125 57.3984375 211.03125 58.3984375 C212.66529095 65.74451724 212.01757482 73.56117834 211.65625 81.0234375 C211.61330811 81.91264893 211.57036621 82.80186035 211.52612305 83.71801758 C211.16291488 90.13510775 211.16291488 90.13510775 210.03125 92.3984375 C201.12125 92.3984375 192.21125 92.3984375 183.03125 92.3984375 C183.03125 101.3084375 183.03125 110.2184375 183.03125 119.3984375 C191.94125 119.3984375 200.85125 119.3984375 210.03125 119.3984375 C211.72564553 124.48162408 212.26252144 126.76365246 212.078125 131.8203125 C212.01431641 133.60501953 212.01431641 133.60501953 211.94921875 135.42578125 C211.89378906 136.65425781 211.83835937 137.88273438 211.78125 139.1484375 C211.74128906 140.39238281 211.70132812 141.63632813 211.66015625 142.91796875 C211.2888322 152.1408553 211.2888322 152.1408553 209.03125 154.3984375 C206.41748047 154.62548828 206.41748047 154.62548828 203.1484375 154.59375 C202.09769043 154.58875488 201.04694336 154.58375977 199.96435547 154.57861328 C198.62518066 154.56040527 197.28600586 154.54219727 195.90625 154.5234375 C191.6575 154.4821875 187.40875 154.4409375 183.03125 154.3984375 C183.03125 163.3084375 183.03125 172.2184375 183.03125 181.3984375 C191.49793056 181.31931978 191.49793056 181.31931978 199.96435547 181.21826172 C201.54047607 181.21076904 201.54047607 181.21076904 203.1484375 181.203125 C204.22722168 181.19265137 205.30600586 181.18217773 206.41748047 181.17138672 C209.03125 181.3984375 209.03125 181.3984375 211.03125 183.3984375 C211.20627995 185.97947056 211.26287279 188.45151913 211.2265625 191.03125 C211.22231766 192.15900345 211.22231766 192.15900345 211.21798706 193.30953979 C211.20677874 195.71433328 211.18167352 198.11875631 211.15625 200.5234375 C211.14622102 202.15233838 211.13709503 203.78124508 211.12890625 205.41015625 C211.10683735 209.40639306 211.07230351 213.40235244 211.03125 217.3984375 C208.50380912 218.66215794 206.76744692 218.51866545 203.93896484 218.51196289 C202.34754166 218.51184959 202.34754166 218.51184959 200.72396851 218.51173401 C199.57498077 218.50657272 198.42599304 218.50141144 197.2421875 218.49609375 C196.06862701 218.4946788 194.89506653 218.49326385 193.6859436 218.49180603 C189.92602015 218.48619439 186.16615555 218.47363988 182.40625 218.4609375 C179.86198002 218.455924 177.31770912 218.45136083 174.7734375 218.44726562 C168.52602147 218.43622118 162.27863994 218.41947168 156.03125 218.3984375 C156.03569122 219.13315277 156.04013245 219.86786804 156.04470825 220.62484741 C156.08474276 227.54079118 156.11521288 234.45671767 156.13487434 241.37274742 C156.14532224 244.92856149 156.15949959 248.48428 156.18212891 252.04003906 C156.20796832 256.1256605 156.21771444 260.21118119 156.2265625 264.296875 C156.23688507 265.57710541 156.24720764 266.85733582 156.25784302 268.17636108 C156.25799408 269.35743439 156.25814514 270.53850769 156.25830078 271.75537109 C156.262742 272.79905853 156.26718323 273.84274597 156.27175903 274.9180603 C156.03125 277.3984375 156.03125 277.3984375 154.03125 279.3984375 C151.54558457 279.59792307 149.1737425 279.67833493 146.6875 279.6640625 C145.96260376 279.66597595 145.23770752 279.6678894 144.49084473 279.66986084 C142.95759738 279.67122237 141.4243385 279.66752814 139.89111328 279.65917969 C137.54042741 279.64847928 135.19050577 279.65907558 132.83984375 279.671875 C131.35156081 279.6705534 129.86327834 279.66799099 128.375 279.6640625 C127.66976196 279.66811096 126.96452393 279.67215942 126.23791504 279.67633057 C121.26117486 279.62836236 121.26117486 279.62836236 119.03125 277.3984375 C118.80419922 274.50927734 118.80419922 274.50927734 118.8359375 270.859375 C118.84560547 268.90644531 118.84560547 268.90644531 118.85546875 266.9140625 C118.87218071 265.53385155 118.88911061 264.15364321 118.90625 262.7734375 C118.91627994 261.38542298 118.92540577 259.99740161 118.93359375 258.609375 C118.95723069 255.20565558 118.99310269 251.80202522 119.03125 248.3984375 C110.12125 248.3984375 101.21125 248.3984375 92.03125 248.3984375 C92.1497341 257.10428725 92.1497341 257.10428725 92.30151367 265.80957031 C92.30900635 266.89592773 92.31649902 267.98228516 92.32421875 269.1015625 C92.34778442 270.76687012 92.34778442 270.76687012 92.37182617 272.46582031 C91.97828374 275.85451685 91.65083166 277.19508483 89.03125 279.3984375 C86.40907157 279.79254097 84.21022704 279.93657997 81.58984375 279.89453125 C80.86636246 279.89598648 80.14288116 279.89744171 79.3974762 279.89894104 C77.87016771 279.89728281 76.34284239 279.88572976 74.81567383 279.86499023 C72.47340282 279.8359951 70.1333894 279.84438819 67.79101562 279.85742188 C66.30728063 279.85118555 64.8235528 279.84279543 63.33984375 279.83203125 C62.28669228 279.83643471 62.28669228 279.83643471 61.21226501 279.84092712 C59.23999023 279.80249023 59.23999023 279.80249023 56.03125 279.3984375 C53.64012791 275.81175437 53.79743973 274.23447181 53.8359375 269.98046875 C53.84238281 268.72685547 53.84882813 267.47324219 53.85546875 266.18164062 C53.88060547 264.21614258 53.88060547 264.21614258 53.90625 262.2109375 C53.91628361 260.87565763 53.9254088 259.54037061 53.93359375 258.20507812 C53.95719633 254.93612105 53.99306781 251.66725679 54.03125 248.3984375 C45.12125 248.3984375 36.21125 248.3984375 27.03125 248.3984375 C27.08345703 251.37810547 27.08345703 251.37810547 27.13671875 254.41796875 C27.15757987 256.34414545 27.17833429 258.27032496 27.19604492 260.1965332 C27.21853333 262.19171451 27.25665198 264.18669963 27.29492188 266.18164062 C27.30458984 267.43525391 27.31425781 268.68886719 27.32421875 269.98046875 C27.3399292 271.13780518 27.35563965 272.2951416 27.37182617 273.48754883 C27.03125 276.3984375 27.03125 276.3984375 25.96435547 278.27685547 C22.94619304 280.02798431 20.26926625 279.76958053 16.80859375 279.76171875 C16.1073085 279.76221725 15.40602325 279.76271576 14.68348694 279.76322937 C13.20326906 279.7608917 11.72304699 279.75118113 10.24291992 279.73461914 C7.97343565 279.71098629 5.70512324 279.71406478 3.43554688 279.72070312 C-7.68961566 279.67757184 -7.68961566 279.67757184 -9.96875 277.3984375 C-10.20925903 274.9180603 -10.20925903 274.9180603 -10.19580078 271.75537109 C-10.19564972 270.57429779 -10.19549866 269.39322449 -10.19534302 268.17636108 C-10.18502045 266.89613068 -10.17469788 265.61590027 -10.1640625 264.296875 C-10.1612326 262.99013824 -10.15840271 261.68340149 -10.15548706 260.33706665 C-10.14784776 256.86161669 -10.1281969 253.38633367 -10.1060791 249.91094971 C-10.08562696 246.36513528 -10.07648671 242.8192939 -10.06640625 239.2734375 C-10.04495116 232.31503555 -10.01081173 225.35674454 -9.96875 218.3984375 C-10.62829681 218.40065811 -11.28784363 218.40287872 -11.96737671 218.40516663 C-18.81255554 218.42723644 -25.65772432 218.44235123 -32.50292969 218.45336914 C-35.05990001 218.45840767 -37.61686743 218.46523857 -40.17382812 218.47387695 C-43.84245517 218.48596352 -47.51104423 218.49167051 -51.1796875 218.49609375 C-52.32867523 218.50125504 -53.47766296 218.50641632 -54.66146851 218.51173401 C-55.7224173 218.51180954 -56.78336609 218.51188507 -57.87646484 218.51196289 C-58.81356293 218.5141835 -59.75066101 218.51640411 -60.71615601 218.51869202 C-62.96875 218.3984375 -62.96875 218.3984375 -64.96875 217.3984375 C-65.04280295 212.59297071 -65.09730497 207.7878346 -65.13354492 202.98193359 C-65.14864911 201.34645809 -65.16913389 199.71102321 -65.19506836 198.07568359 C-65.23138145 195.72743726 -65.24845932 193.37972545 -65.26171875 191.03125 C-65.27720261 190.29786407 -65.29268646 189.56447815 -65.30863953 188.80886841 C-65.30932617 186.74658203 -65.30932617 186.74658203 -64.96875 183.3984375 C-61.52241118 181.10087828 -60.25806609 181.16199774 -56.20703125 181.203125 C-55.19938721 181.20812012 -54.19174316 181.21311523 -53.15356445 181.21826172 C-51.87570068 181.23646973 -50.59783691 181.25467773 -49.28125 181.2734375 C-43.1865625 181.3353125 -43.1865625 181.3353125 -36.96875 181.3984375 C-36.96875 172.4884375 -36.96875 163.5784375 -36.96875 154.3984375 C-45.4353347 154.43799575 -45.4353347 154.43799575 -53.90185547 154.48852539 C-54.95260254 154.49102295 -56.00334961 154.49352051 -57.0859375 154.49609375 C-58.70411377 154.50394897 -58.70411377 154.50394897 -60.35498047 154.51196289 C-62.96875 154.3984375 -62.96875 154.3984375 -64.96875 153.3984375 C-66.06036447 147.3945579 -66.09551919 141.36077176 -66.15625 135.2734375 C-66.16930176 134.50974854 -66.18235352 133.74605957 -66.19580078 132.95922852 C-66.19692871 132.21471436 -66.19805664 131.4702002 -66.19921875 130.703125 C-66.20332764 130.04296387 -66.20743652 129.38280273 -66.21166992 128.70263672 C-65.87719264 125.52997682 -64.84517696 122.46593186 -63.96875 119.3984375 C-55.05875 119.3984375 -46.14875 119.3984375 -36.96875 119.3984375 C-36.96875 110.4884375 -36.96875 101.5784375 -36.96875 92.3984375 C-45.87875 92.3984375 -54.78875 92.3984375 -63.96875 92.3984375 C-66.21875 83.3984375 -66.21875 83.3984375 -65.9453125 77.9296875 C-65.89375 76.78242188 -65.8421875 75.63515625 -65.7890625 74.453125 C-65.72460938 73.28007812 -65.66015625 72.10703125 -65.59375 70.8984375 C-65.53703125 69.69445312 -65.4803125 68.49046875 -65.421875 67.25 C-65.28134151 64.29879679 -65.13002548 61.34856767 -64.96875 58.3984375 C-62.44130912 57.13471706 -60.70494692 57.27820955 -57.87646484 57.28491211 C-56.28504166 57.28502541 -56.28504166 57.28502541 -54.66146851 57.28514099 C-53.51248077 57.29030228 -52.36349304 57.29546356 -51.1796875 57.30078125 C-50.00612701 57.3021962 -48.83256653 57.30361115 -47.6234436 57.30506897 C-43.86352015 57.31068061 -40.10365555 57.32323512 -36.34375 57.3359375 C-33.79948002 57.340951 -31.25520912 57.34551417 -28.7109375 57.34960938 C-22.46352147 57.36065382 -16.21613994 57.37740332 -9.96875 57.3984375 C-9.97541183 56.72858322 -9.98207367 56.05872894 -9.98893738 55.36857605 C-10.0552014 48.40974721 -10.10051348 41.45100769 -10.13354492 34.49194336 C-10.14865063 31.89327353 -10.16913634 29.29462927 -10.19506836 26.69604492 C-10.23137243 22.96526792 -10.24845858 19.23482737 -10.26171875 15.50390625 C-10.27720261 14.33820602 -10.29268646 13.1725058 -10.30863953 11.97148132 C-10.30886612 10.89058731 -10.30909271 9.8096933 -10.30932617 8.69604492 C-10.31598801 7.74340256 -10.32264984 6.79076019 -10.32951355 5.80924988 C-9.96875 3.3984375 -9.96875 3.3984375 -8.64363098 1.59159851 C-5.91302997 -0.35364219 -3.29630949 0.0088249 0 0 Z M-5.96875 61.3984375 C-5.96875 112.5484375 -5.96875 163.6984375 -5.96875 216.3984375 C46.17125 216.3984375 98.31125 216.3984375 152.03125 216.3984375 C152.03125 165.2484375 152.03125 114.0984375 152.03125 61.3984375 C148.80635371 60.32347207 146.49051493 60.27263835 143.09893799 60.27145386 C141.85963531 60.26863403 140.62033264 60.26581421 139.34347534 60.26290894 C137.96759019 60.26485334 136.59170518 60.26690152 135.21582031 60.26904297 C133.76862545 60.26768809 132.32143093 60.26590767 130.87423706 60.26373291 C126.9401773 60.25916723 123.00614371 60.26094503 119.07208347 60.264112 C114.95404044 60.26664198 110.83599966 60.26429609 106.71795654 60.26272583 C99.79764402 60.26090519 92.87734216 60.26330684 85.95703125 60.26806641 C77.96424733 60.27350023 69.97148894 60.27175235 61.97870564 60.26624 C55.11404682 60.26169561 48.24939567 60.26106508 41.38473582 60.26367867 C37.28604003 60.26523525 33.18735621 60.26545234 29.08866119 60.26214218 C25.23094113 60.25924453 21.37325381 60.26127391 17.51553726 60.26703644 C16.10265024 60.26835426 14.68976045 60.26798659 13.27687454 60.26577377 C11.34174958 60.2630235 9.40661858 60.26709053 7.47149658 60.27145386 C5.84991575 60.2720194 5.84991575 60.2720194 4.19557571 60.27259636 C0.78943915 60.408054 -2.59418147 60.91635628 -5.96875 61.3984375 Z " fill="#88DF4D" transform="translate(176.96875,94.6015625)"/>
<path d="M0 0 C19.14 0 38.28 0 58 0 C58 0.66 58 1.32 58 2 C60.64 2 63.28 2 66 2 C66 2.33 66 2.66 66 3 C63.36 3 60.72 3 58 3 C58 53.82 58 104.64 58 157 C57.34 157 56.68 157 56 157 C56 157.66 56 158.32 56 159 C37.52 159 19.04 159 0 159 C-0.061875 153.43125 -0.12375 147.8625 -0.1875 142.125 C-0.21481201 140.36816895 -0.24212402 138.61133789 -0.27026367 136.80126953 C-0.27902387 135.41179086 -0.28666891 134.02230451 -0.29296875 132.6328125 C-0.30831665 131.90892334 -0.32366455 131.18503418 -0.33947754 130.43920898 C-0.34057617 128.34814453 -0.34057617 128.34814453 0 125 C3.44633882 122.70244078 4.71068391 122.76356024 8.76171875 122.8046875 C9.76936279 122.80968262 10.77700684 122.81467773 11.81518555 122.81982422 C13.09304932 122.83803223 14.37091309 122.85624023 15.6875 122.875 C21.7821875 122.936875 21.7821875 122.936875 28 123 C28 114.09 28 105.18 28 96 C19.5334153 96.03955825 19.5334153 96.03955825 11.06689453 96.09008789 C10.01614746 96.09258545 8.96540039 96.09508301 7.8828125 96.09765625 C6.26463623 96.10551147 6.26463623 96.10551147 4.61376953 96.11352539 C2 96 2 96 0 95 C-1.09161447 88.9961204 -1.12676919 82.96233426 -1.1875 76.875 C-1.20055176 76.11131104 -1.21360352 75.34762207 -1.22705078 74.56079102 C-1.22817871 73.81627686 -1.22930664 73.0717627 -1.23046875 72.3046875 C-1.23457764 71.64452637 -1.23868652 70.98436523 -1.24291992 70.30419922 C-0.90844264 67.13153932 0.12357304 64.06749436 1 61 C9.91 61 18.82 61 28 61 C28 52.09 28 43.18 28 34 C19.09 34 10.18 34 1 34 C-1 26 -1 26 0 0 Z " fill="#8AE14E" transform="translate(112,153)"/>
<path d="M0 0 C0.33 0 0.66 0 1 0 C1 51.15 1 102.3 1 155 C53.14 155 105.28 155 159 155 C159 103.85 159 52.7 159 0 C159.33 0 159.66 0 160 0 C160 51.48 160 102.96 160 156 C106.3232591 156.57408279 52.67733116 157.14162884 -1 157 C-0.67 176.14 -0.34 195.28 0 215 C10.23 215.33 20.46 215.66 31 216 C31 216.66 31 217.32 31 218 C26.47934572 218.049377 21.95884783 218.08570823 17.43798828 218.10986328 C15.89954902 218.11993118 14.36112893 218.13358646 12.82275391 218.15087891 C10.61355867 218.17509317 8.40461605 218.18647491 6.1953125 218.1953125 C5.50567413 218.20563507 4.81603577 218.21595764 4.10549927 218.22659302 C2.40199094 218.22699478 0.69914057 218.12191026 -1 218 C-3 216 -3 216 -3.24050903 213.5196228 C-3.23606781 212.47593536 -3.23162659 211.43224792 -3.22705078 210.35693359 C-3.22689972 209.17586029 -3.22674866 207.99478699 -3.22659302 206.77792358 C-3.21627045 205.49769318 -3.20594788 204.21746277 -3.1953125 202.8984375 C-3.1924826 201.59170074 -3.18965271 200.28496399 -3.18673706 198.93862915 C-3.17909776 195.46317919 -3.1594469 191.98789617 -3.1373291 188.51251221 C-3.11687696 184.9666982 -3.1076272 181.42085643 -3.09765625 177.875 C-3.07726211 170.91651918 -3.03811715 163.95849691 -3 157 C-20.49 157 -37.98 157 -56 157 C-56 156.67 -56 156.34 -56 156 C-38.18 156 -20.36 156 -2 156 C-2 155.34 -2 154.68 -2 154 C-1.34 154 -0.68 154 0 154 C0 103.18 0 52.36 0 0 Z " fill="#6A9D48" transform="translate(170,156)"/>
<path d="M0 0 C0.33 0 0.66 0 1 0 C1.00586624 0.63449066 1.01173248 1.26898132 1.01777649 1.92269897 C1.08156152 8.50866026 1.16594167 15.0941261 1.26245117 21.6796875 C1.29576766 24.13958212 1.32377836 26.59955442 1.34643555 29.05957031 C1.37985781 32.5895305 1.43216766 36.11877434 1.48828125 39.6484375 C1.49467117 40.75367767 1.5010611 41.85891785 1.50764465 42.99765015 C1.53733589 44.52901108 1.53733589 44.52901108 1.56762695 46.09130859 C1.58428154 47.44366104 1.58428154 47.44366104 1.60127258 48.82333374 C1.79864265 49.90078354 1.79864265 49.90078354 2 51 C2.99 51.66 3.98 52.32 5 53 C5 53.66 5 54.32 5 55 C13.47659613 55.8323056 21.87302083 56.16385523 30.38769531 56.20532227 C32.30690041 56.22017166 32.30690041 56.22017166 34.26487732 56.23532104 C37.73304529 56.26205352 41.20122642 56.28323174 44.66943836 56.30332303 C48.3089257 56.32538099 51.94837394 56.35267156 55.58782959 56.37937927 C62.46164769 56.42904113 69.33548779 56.47407683 76.20934844 56.51740164 C84.04263532 56.56700246 91.87588294 56.62183491 99.70913172 56.67708123 C115.8060515 56.79049366 131.90300746 56.89741935 148 57 C148 57.33 148 57.66 148 58 C99.82 58 51.64 58 2 58 C2 57.34 2 56.68 2 56 C-16.48 56 -34.96 56 -54 56 C-54 55.67 -54 55.34 -54 55 C-36.51 55 -19.02 55 -1 55 C-1.01160156 51.11347656 -1.02320313 47.22695312 -1.03515625 43.22265625 C-1.04294538 39.47631919 -1.04902296 35.72998302 -1.05493164 31.98364258 C-1.05997377 29.37133381 -1.06680725 26.75902789 -1.07543945 24.14672852 C-1.08751036 20.40119732 -1.09322935 16.65570328 -1.09765625 12.91015625 C-1.10281754 11.73413345 -1.10797882 10.55811066 -1.11329651 9.34645081 C-1.11337204 8.26540573 -1.11344757 7.18436066 -1.11352539 6.07055664 C-1.115746 5.11347305 -1.11796661 4.15638947 -1.12025452 3.17030334 C-1 1 -1 1 0 0 Z " fill="#84BF5D" transform="translate(168,97)"/>
<path d="M0 0 C18.15 0 36.3 0 55 0 C55 0.33 55 0.66 55 1 C37.51 1 20.02 1 2 1 C2.02320313 5.23585938 2.04640625 9.47171875 2.0703125 13.8359375 C2.08316978 17.20838299 2.09401702 20.58082158 2.10350037 23.95327759 C2.11407217 27.51610208 2.12820497 31.07883179 2.15087891 34.64160156 C2.17671832 38.727223 2.18646444 42.81274369 2.1953125 46.8984375 C2.20563507 48.17866791 2.21595764 49.45889832 2.22659302 50.77792358 C2.22681961 52.54953354 2.22681961 52.54953354 2.22705078 54.35693359 C2.231492 55.40062103 2.23593323 56.44430847 2.24050903 57.5196228 C2 60 2 60 0 62 C-2.50920846 62.17495606 -4.90624941 62.23169569 -7.4140625 62.1953125 C-8.14370209 62.1924826 -8.87334167 62.18965271 -9.62509155 62.18673706 C-11.95856028 62.17553002 -14.29164703 62.1504251 -16.625 62.125 C-18.20572363 62.11497085 -19.78645327 62.10584489 -21.3671875 62.09765625 C-25.24493914 62.07558905 -29.12240478 62.04105615 -33 62 C-33 61.67 -33 61.34 -33 61 C-22.44 61 -11.88 61 -1 61 C-0.67 40.87 -0.34 20.74 0 0 Z " fill="#6AA147" transform="translate(331,312)"/>
<path d="M0 0 C10.56 0 21.12 0 32 0 C32 0.66 32 1.32 32 2 C32.66 2 33.32 2 34 2 C34 20.15 34 38.3 34 57 C33.34 57 32.68 57 32 57 C31.98786972 56.02947189 31.98786972 56.02947189 31.97549438 55.03933716 C31.88964128 48.32370872 31.79014685 41.60838204 31.68261719 34.89306641 C31.64426127 32.38465429 31.60942025 29.87618592 31.578125 27.36767578 C31.53261791 23.76834971 31.4746 20.16941317 31.4140625 16.5703125 C31.40251129 15.44319855 31.39096008 14.31608459 31.37905884 13.15481567 C31.35918915 12.11388763 31.33931946 11.07295959 31.31884766 10.00048828 C31.30552399 9.08115509 31.29220032 8.1618219 31.2784729 7.21463013 C31.20423949 4.79533048 31.20423949 4.79533048 29 3 C25.99027343 2.62703444 25.99027343 2.62703444 22.4609375 2.5859375 C21.15898437 2.54726562 19.85703125 2.50859375 18.515625 2.46875 C17.13542138 2.43729237 15.75521296 2.40604509 14.375 2.375 C12.98695459 2.33682066 11.59893289 2.29776895 10.2109375 2.2578125 C6.80742815 2.16327057 3.40392835 2.07772103 0 2 C0 1.34 0 0.68 0 0 Z " fill="#72AE4F" transform="translate(299,95)"/>
<path d="M0 0 C2.475 0.99 2.475 0.99 5 2 C4.01 2.495 4.01 2.495 3 3 C3 11.91 3 20.82 3 30 C12.9 30.33 22.8 30.66 33 31 C33 31.33 33 31.66 33 32 C22.11 32 11.22 32 0 32 C0 21.44 0 10.88 0 0 Z " fill="#94DF64" transform="translate(297,341)"/>
<path d="M0 0 C0.33 0 0.66 0 1 0 C1.33 6.27 1.66 12.54 2 19 C12.23 19.33 22.46 19.66 33 20 C33 20.66 33 21.32 33 22 C28.46102295 22.02465392 23.92208457 22.04283789 19.38305664 22.05493164 C17.83780234 22.0599714 16.29255284 22.0668032 14.74731445 22.07543945 C12.53074971 22.08752076 10.31424782 22.09323173 8.09765625 22.09765625 C7.05545677 22.10539818 7.05545677 22.10539818 5.99220276 22.11329651 C4.3277067 22.11349277 2.66334501 22.06189129 1 22 C0 21 0 21 -0.11352539 18.95874023 C-0.10828857 18.08419189 -0.10305176 17.20964355 -0.09765625 16.30859375 C-0.09443359 15.36435547 -0.09121094 14.42011719 -0.08789062 13.44726562 C-0.07951172 12.45404297 -0.07113281 11.46082031 -0.0625 10.4375 C-0.05798828 9.44041016 -0.05347656 8.44332031 -0.04882812 7.41601562 C-0.03700007 4.94395151 -0.02051849 2.47200482 0 0 Z " fill="#80C652" transform="translate(168,352)"/>
<path d="M0 0 C0.33 0.66 0.66 1.32 1 2 C2.32 2 3.64 2 5 2 C5.33 2.66 5.66 3.32 6 4 C13.92 4.33 21.84 4.66 30 5 C30 5.66 30 6.32 30 7 C20.43 7 10.86 7 1 7 C0.67 4.69 0.34 2.38 0 0 Z " fill="#8DCE60" transform="translate(112,180)"/>
<path d="M0 0 C1.32 0.66 2.64 1.32 4 2 C4 2.66 4 3.32 4 4 C9.94 4.66 15.88 5.32 22 6 C22 6.33 22 6.66 22 7 C15.07 7 8.14 7 1 7 C1 6.34 1 5.68 1 5 C0.01 4.67 -0.98 4.34 -2 4 C-1.34 4 -0.68 4 0 4 C0 2.68 0 1.36 0 0 Z " fill="#92E25C" transform="translate(169,148)"/>
<path d="M0 0 C1.65 0 3.3 0 5 0 C4.01 1.485 4.01 1.485 3 3 C2.66696012 5.18952743 2.66696012 5.18952743 2.65625 7.59765625 C2.61177734 8.92313477 2.61177734 8.92313477 2.56640625 10.27539062 C2.5220424 12.13736758 2.47777195 13.99934676 2.43359375 15.86132812 C2.38912109 17.18487305 2.38912109 17.18487305 2.34375 18.53515625 C2.32505859 19.343479 2.30636719 20.15180176 2.28710938 20.98461914 C2 23 2 23 0 25 C0 16.75 0 8.5 0 0 Z " fill="#95DE65" transform="translate(297,98)"/>
<path d="M0 0 C8.91 0 17.82 0 27 0 C27 0.99 27 1.98 27 3 C26.23429687 2.84660156 25.46859375 2.69320313 24.6796875 2.53515625 C19.83441732 1.8304832 15.01351261 1.63953203 10.125 1.4375 C9.15046875 1.39431641 8.1759375 1.35113281 7.171875 1.30664062 C4.78137198 1.20117726 2.39077556 1.09905825 0 1 C0 0.67 0 0.34 0 0 Z " fill="#98D965" transform="translate(360,277)"/>
<path d="M0 0 C0.99 0.33 1.98 0.66 3 1 C3.33 2.65 3.66 4.3 4 6 C3.01 6.33 2.02 6.66 1 7 C0.01 8.485 0.01 8.485 -1 10 C-1.99 10.495 -1.99 10.495 -3 11 C-3 10.01 -3 9.02 -3 8 C-2.34 8 -1.68 8 -1 8 C-0.67 5.36 -0.34 2.72 0 0 Z " fill="#8EE857" transform="translate(331,305)"/>
<path d="M0 0 C1.67542976 0.28604898 3.34385343 0.61781233 5 1 C4.814375 1.61875 4.62875 2.2375 4.4375 2.875 C3.76313824 5.04160178 3.76313824 5.04160178 5 7 C4.01 7.33 3.02 7.66 2 8 C2 6.68 2 5.36 2 4 C1.67 3.67 1.34 3.34 1 3 C0.34 2.34 -0.32 1.68 -1 1 C-0.67 0.67 -0.34 0.34 0 0 Z " fill="#82DA48" transform="translate(298,96)"/>
<path d="M0 0 C2.64 0 5.28 0 8 0 C8 1.65 8 3.3 8 5 C7.01 4.67 6.02 4.34 5 4 C5 3.01 5 2.02 5 1 C3.35 1 1.7 1 0 1 C0 0.67 0 0.34 0 0 Z " fill="#90DF5F" transform="translate(259,96)"/>
</svg>
